# xmcd
#
# Track frame offsets:
#	150
#	28002
#	69290
#	84069
#	112176
#	159514
#	183894
#	205219
#	221029
#	241414
#
# Disc length: 3625
#
# Revision: 1
# Processed by: cddbd v1.5.1PL0 Copyright (c) Steve Scherf et al.
# Submitted via: CDex 1.51
# Normalized: r0:DSETVAR1
#
DISCID=810e270a
DTITLE=Various Artist - JAZZ VIRTUOSI -- Disc 2/2
DYEAR=1900
DGENRE=Jazz
TTITLE0=Chet Baker - This is always
TTITLE1=Dizzy Gillespie - Kush
TTITLE2=Charlie Parker - Cool blues
TTITLE3=Miles Davis - A night in Tunisia
TTITLE4=John Coltrane - Stuff I'm partial too
TTITLE5=Ronnie Laws - Imo
TTITLE6=Ahmad Jamal - The good life
TTITLE7=Quincy Jones and his Orchestra - Watermelon man
TTITLE8=Charlie Parker/Dizzy Gillespie - Hot house
TTITLE9=Chet Baker - C T A
EXTD=
EXTT0=
EXTT1=
EXTT2=
EXTT3=
EXTT4=
EXTT5=
EXTT6=
EXTT7=
EXTT8=
EXTT9=
PLAYORDER=
